# xmcd
#
# Track frame offsets:
#	150
#	17160
#	33685
#	51559
#	67193
#	82394
#	99026
#	115793
#	130429
#	146847
#	164558
#	181811
#	198146
#
# Disc length: 2999 seconds
#
# Revision: 1
# Processed by: cddbd v1.5.2PL0 Copyright (c) Steve Scherf et al.
# Submitted via: EasyCDDAExtractor 6.0.0.1
#
DISCID=c20bb50d
DTITLE=Paulina Rubio - Ananda
DYEAR=2006
DGENRE=pop
TTITLE0=Ni una sola palabra
TTITLE1=Nada puede cambiarme
TTITLE2=Ayudame
TTITLE3=N.O
TTITLE4=Que me voy a quedar
TTITLE5=Aunque no sea contigo
TTITLE6=No te cambio
TTITLE7=Retrato
TTITLE8=Mienteme una vez mas
TTITLE9=Hoy
TTITLE10=Lo que pensamos
TTITLE11=T y yo
TTITLE12=Sin final
EXTD=Gugome dj
EXTT0=
EXTT1=
EXTT2=
EXTT3=
EXTT4=
EXTT5=
EXTT6=
EXTT7=
EXTT8=
EXTT9=
EXTT10=
EXTT11=
EXTT12=
PLAYORDER=
